<svg xmlns="http://www.w3.org/2000/svg" xmlns:xlink="http://www.w3.org/1999/xlink" fill="none" version="1.1" width="18" height="18" viewBox="0 0 18 18"><defs><clipPath id="master_svg0_5056_054854"><rect x="0" y="0" width="18" height="18" rx="0"/></clipPath></defs><g clip-path="url(#master_svg0_5056_054854)"><g><path d="M1.75,9.94946L1.75,8.05054L1.75968522,8.05054Q1.7765462,6.63884,1.8227606,6.06701Q1.933337,4.6988,2.390221,3.93654Q2.96971,2.96971,3.93654,2.390221Q4.6988,1.933337,6.06701,1.8227606Q6.63884,1.7765462,8.05054,1.75968522L8.05054,1.75L9.94946,1.75L9.94946,1.75968522Q11.36116,1.7765462,11.933,1.8227606Q13.3012,1.933337,14.0635,2.390221Q15.0303,2.96971,15.6098,3.93654Q16.0667,4.69881,16.1772,6.06701Q16.2235,6.63884,16.240299999999998,8.05054L16.25,8.05054L16.25,9.94946L16.240299999999998,9.94946Q16.2235,11.36116,16.1772,11.933Q16.0667,13.3012,15.6098,14.0635Q15.0303,15.0303,14.0635,15.6098Q13.3012,16.0667,11.933,16.1772Q11.36116,16.2235,9.94946,16.240299999999998L9.94946,16.25L8.05054,16.25L8.05054,16.240299999999998Q6.63884,16.2235,6.06701,16.1772Q4.69881,16.0667,3.93654,15.6098Q2.96971,15.0303,2.390221,14.0635Q1.933337,13.3012,1.8227606,11.933Q1.7765462,11.36116,1.75968522,9.94946L1.75,9.94946ZM2.75205,9Q2.76194,11.14013,2.81951,11.8524Q2.91125,12.9876,3.24795,13.5494Q3.6986600000000003,14.3013,4.45064,14.7521Q5.01239,15.0887,6.14757,15.1805Q6.8599,15.2381,9.000119999999999,15.2479Q11.14014,15.2381,11.8524,15.1805Q12.9876,15.0887,13.5494,14.7521Q14.3013,14.3013,14.7521,13.5494Q15.0887,12.9876,15.1805,11.8524Q15.2381,11.14013,15.2479,9Q15.2381,6.85987,15.1805,6.14757Q15.0887,5.01239,14.7521,4.45064Q14.3013,3.69867,13.5494,3.24795Q12.9876,2.91125,11.8524,2.81951Q11.14013,2.76194,9,2.75205Q6.85987,2.76194,6.14757,2.81951Q5.01238,2.91125,4.45064,3.24795Q3.69867,3.69867,3.24795,4.45064Q2.91125,5.01238,2.81951,6.14757Q2.76194,6.85987,2.75205,9Z" fill-rule="evenodd" fill="#4E5969" fill-opacity="1"/></g><g><path d="M6,9.5L12,9.5Q12.04925,9.5,12.09755,9.490393Q12.14584,9.480785000000001,12.19134,9.46194Q12.23684,9.443094,12.27778,9.415735Q12.31873,9.388375,12.35355,9.353553Q12.38837,9.318731,12.41573,9.277785Q12.44309,9.236839,12.46194,9.191342Q12.48078,9.145845,12.49039,9.0975451Q12.5,9.0492457,12.5,9Q12.5,8.9507543,12.49039,8.9024549Q12.48078,8.854155,12.46194,8.808658Q12.44309,8.763161,12.41573,8.722215Q12.38837,8.681269,12.35355,8.646447Q12.31873,8.611625,12.27778,8.584265Q12.23684,8.556906,12.19134,8.53806Q12.14584,8.519214999999999,12.09755,8.509607Q12.04925,8.5,12,8.5L6,8.5Q5.9507543,8.5,5.9024549,8.509607Q5.854155,8.519214999999999,5.808658,8.53806Q5.763161,8.556906,5.722215,8.584265Q5.681269,8.611625,5.646447,8.646447Q5.611625,8.681269,5.584265,8.722215Q5.556906,8.763161,5.53806,8.808658Q5.519215,8.854155,5.509607,8.9024549Q5.5,8.9507543,5.5,9Q5.5,9.0492457,5.509607,9.0975451Q5.519215,9.145845,5.53806,9.191342Q5.556906,9.236839,5.584265,9.277785Q5.611625,9.318731,5.646447,9.353553Q5.681269,9.388375,5.722215,9.415735Q5.763161,9.443094,5.808658,9.46194Q5.854155,9.480785000000001,5.9024549,9.490393Q5.9507543,9.5,6,9.5Z" fill-rule="evenodd" fill="#4E5969" fill-opacity="1"/></g></g></svg>